<?xml version="1.0" encoding="UTF-8"?>
<svg xmlns="http://www.w3.org/2000/svg" width="640" height="432" viewBox="0 0 640 432">
  <rect width="100%" height="100%" fill="#ffffff"/>
  <text x="18" y="28" font-family="DejaVu Sans, sans-serif" font-size="17" fill="#111">峰值内存：相对 pandas 的倍数（越低越好）</text>
  <text x="18" y="45" font-family="DejaVu Sans, sans-serif" font-size="12.5" fill="#555">1.0× 虚线 = 与 pandas 持平 · 条尾含绝对值 · 3–5 次取中位数 · golden 全过</text>
  <line x1="206.0" y1="48" x2="206.0" y2="378" stroke="#f3f4f6" stroke-dasharray="1,0"/>
  <text x="206.0" y="392" text-anchor="middle" font-family="DejaVu Sans, sans-serif" font-size="12" fill="#666">0×</text>
  <line x1="292.6666666666667" y1="48" x2="292.6666666666667" y2="378" stroke="#6b7280" stroke-dasharray="5,4"/>
  <text x="292.6666666666667" y="392" text-anchor="middle" font-family="DejaVu Sans, sans-serif" font-size="12" fill="#374151">1×</text>
  <line x1="379.33333333333337" y1="48" x2="379.33333333333337" y2="378" stroke="#f3f4f6" stroke-dasharray="1,0"/>
  <text x="379.33333333333337" y="392" text-anchor="middle" font-family="DejaVu Sans, sans-serif" font-size="12" fill="#666">2×</text>
  <line x1="466.0" y1="48" x2="466.0" y2="378" stroke="#f3f4f6" stroke-dasharray="1,0"/>
  <text x="466.0" y="392" text-anchor="middle" font-family="DejaVu Sans, sans-serif" font-size="12" fill="#666">3×</text>
  <text x="14" y="69" font-family="DejaVu Sans, sans-serif" font-size="12" fill="#222">报表宽表 xlsx</text>
  <text x="14" y="85" font-family="DejaVu Sans, sans-serif" font-size="10.5" fill="#888">pandas 1.2 GiB</text>
  <rect x="206" y="52" width="70.3" height="11" rx="2" fill="#7c3aed"/>
  <text x="281.3" y="61" font-family="DejaVu Sans, sans-serif" font-size="10.5" fill="#444">0.81× · 1.0 GiB</text>
  <rect x="206" y="68" width="3.9" height="11" rx="2" fill="#0f766e"/>
  <text x="214.9" y="77" font-family="DejaVu Sans, sans-serif" font-size="10.5" fill="#444">0.04× · 56 MiB</text>
  <text x="14" y="113" font-family="DejaVu Sans, sans-serif" font-size="12" fill="#222">大宽表 csv</text>
  <text x="14" y="129" font-family="DejaVu Sans, sans-serif" font-size="10.5" fill="#888">pandas 353 MiB</text>
  <rect x="206" y="96" width="150.5" height="11" rx="2" fill="#7c3aed"/>
  <text x="361.5" y="105" font-family="DejaVu Sans, sans-serif" font-size="10.5" fill="#444">1.74× · 613 MiB</text>
  <rect x="206" y="112" width="7.5" height="11" rx="2" fill="#0f766e"/>
  <text x="218.5" y="121" font-family="DejaVu Sans, sans-serif" font-size="10.5" fill="#444">0.09× · 31 MiB</text>
  <text x="14" y="157" font-family="DejaVu Sans, sans-serif" font-size="12" fill="#222">链式边界 xlsx</text>
  <text x="14" y="173" font-family="DejaVu Sans, sans-serif" font-size="10.5" fill="#888">pandas 393 MiB</text>
  <rect x="206" y="140" width="85.9" height="11" rx="2" fill="#7c3aed"/>
  <text x="296.9" y="149" font-family="DejaVu Sans, sans-serif" font-size="10.5" fill="#444">0.99× · 390 MiB</text>
  <rect x="206" y="156" width="11.9" height="11" rx="2" fill="#0f766e"/>
  <text x="222.9" y="165" font-family="DejaVu Sans, sans-serif" font-size="10.5" fill="#444">0.14× · 54 MiB</text>
  <text x="14" y="201" font-family="DejaVu Sans, sans-serif" font-size="12" fill="#222">大长表 csv</text>
  <text x="14" y="217" font-family="DejaVu Sans, sans-serif" font-size="10.5" fill="#888">pandas 892 MiB</text>
  <rect x="206" y="184" width="109.2" height="11" rx="2" fill="#7c3aed"/>
  <text x="320.2" y="193" font-family="DejaVu Sans, sans-serif" font-size="10.5" fill="#444">1.26× · 1.1 GiB</text>
  <rect x="206" y="200" width="3.0" height="11" rx="2" fill="#0f766e"/>
  <text x="214.0" y="209" font-family="DejaVu Sans, sans-serif" font-size="10.5" fill="#444">0.03× · 31 MiB</text>
  <text x="14" y="245" font-family="DejaVu Sans, sans-serif" font-size="12" fill="#222">超多列宽表 csv</text>
  <text x="14" y="261" font-family="DejaVu Sans, sans-serif" font-size="10.5" fill="#888">pandas 307 MiB</text>
  <rect x="206" y="228" width="141.2" height="11" rx="2" fill="#7c3aed"/>
  <text x="352.2" y="237" font-family="DejaVu Sans, sans-serif" font-size="10.5" fill="#444">1.63× · 499 MiB</text>
  <rect x="206" y="244" width="9.2" height="11" rx="2" fill="#0f766e"/>
  <text x="220.2" y="253" font-family="DejaVu Sans, sans-serif" font-size="10.5" fill="#444">0.11× · 32 MiB</text>
  <text x="14" y="289" font-family="DejaVu Sans, sans-serif" font-size="12" fill="#222">超多列宽表 xlsx</text>
  <text x="14" y="305" font-family="DejaVu Sans, sans-serif" font-size="10.5" fill="#888">pandas 1.8 GiB</text>
  <rect x="206" y="272" width="69.0" height="11" rx="2" fill="#7c3aed"/>
  <text x="280.0" y="281" font-family="DejaVu Sans, sans-serif" font-size="10.5" fill="#444">0.80× · 1.4 GiB</text>
  <rect x="206" y="288" width="2.5" height="11" rx="2" fill="#0f766e"/>
  <text x="213.5" y="297" font-family="DejaVu Sans, sans-serif" font-size="10.5" fill="#444">0.03× · 54 MiB</text>
  <text x="14" y="333" font-family="DejaVu Sans, sans-serif" font-size="12" fill="#222">多源关联 csv</text>
  <text x="14" y="349" font-family="DejaVu Sans, sans-serif" font-size="10.5" fill="#888">pandas 125 MiB</text>
  <rect x="206" y="316" width="284.2" height="11" rx="2" fill="#7c3aed"/>
  <text x="495.2" y="325" font-family="DejaVu Sans, sans-serif" font-size="10.5" fill="#444">3.28× · 409 MiB</text>
  <rect x="206" y="332" width="22.6" height="11" rx="2" fill="#0f766e"/>
  <text x="233.6" y="341" font-family="DejaVu Sans, sans-serif" font-size="10.5" fill="#444">0.26× · 33 MiB</text>
  <rect x="206" y="404" width="11" height="11" rx="2" fill="#7c3aed"/>
  <text x="222" y="414" font-family="DejaVu Sans, sans-serif" font-size="11.5" fill="#333">polars</text>
  <rect x="356" y="404" width="11" height="11" rx="2" fill="#0f766e"/>
  <text x="372" y="414" font-family="DejaVu Sans, sans-serif" font-size="11.5" fill="#333">Scalim（流式）</text>
  <text x="362.0" y="430" text-anchor="middle" font-family="DejaVu Sans, sans-serif" font-size="12" fill="#333">相对 pandas 的峰值内存倍数（线性轴）</text>
</svg>
